<svg width="284" height="50" viewBox="0 0 284 50" fill="none" xmlns="http://www.w3.org/2000/svg">
<path d="M67.4597 31.04V15.36C67.4597 11.3867 69.4464 9.4 73.4197 9.4H84.8597L86.4197 10.6V11.84H73.2997C71.193 11.84 70.1397 12.88 70.1397 14.96V31.44C70.1397 33.52 71.193 34.56 73.2997 34.56H86.4197V35.8L84.8597 37H73.4197C69.4464 37 67.4597 35.0133 67.4597 31.04ZM92.1975 31.12V22.16C92.1975 18.24 94.1575 16.28 98.0775 16.28H103.678C107.571 16.28 109.518 18.24 109.518 22.16V31.12C109.518 35.04 107.571 37 103.678 37H98.0775C94.1575 37 92.1975 35.04 92.1975 31.12ZM94.7175 31.52C94.7175 33.7067 95.8108 34.8 97.9975 34.8H103.757C105.918 34.8 106.998 33.7067 106.998 31.52V21.76C106.998 19.6 105.918 18.52 103.757 18.52H97.9975C95.8108 18.52 94.7175 19.6 94.7175 21.76V31.52ZM116.599 37V16.28H127.679C131.572 16.28 133.519 18.24 133.519 22.16V37H130.999V21.76C130.999 19.6 129.919 18.52 127.759 18.52H119.119V37H116.599ZM139.918 35.96V34.8H149.198C151.331 34.8 152.398 33.7333 152.398 31.6C152.398 29.4667 151.545 28.2667 149.838 28L144.958 27.16C141.598 26.6 139.918 24.8267 139.918 21.84C139.918 18.1333 141.891 16.28 145.838 16.28H152.598L153.958 17.32V18.52H145.678C143.518 18.52 142.438 19.5733 142.438 21.68C142.438 23.5467 143.331 24.6267 145.118 24.92L150.038 25.76C153.291 26.2933 154.918 28.1867 154.918 31.44C154.918 35.1467 152.945 37 148.998 37H141.278L139.918 35.96ZM161.32 31.12V9.4H163.84V16.28H171.68V18.52H163.84V31.52C163.84 33.7067 164.933 34.8 167.12 34.8H172.08V35.96L170.72 37H167.2C163.28 37 161.32 35.04 161.32 31.12ZM177.433 12.32V9.04H180.313V12.32H177.433ZM177.593 37V16.28H180.113V37H177.593ZM187.174 31.12V22.16C187.174 18.24 189.134 16.28 193.054 16.28H198.254C202.147 16.28 204.094 18.24 204.094 22.16V27.64H189.694V31.52C189.694 33.7067 190.787 34.8 192.974 34.8H203.294V35.96L201.934 37H193.054C189.134 37 187.174 35.04 187.174 31.12ZM189.694 25.52H201.574V21.76C201.574 19.6 200.494 18.52 198.334 18.52H192.974C190.787 18.52 189.694 19.6 189.694 21.76V25.52ZM211.185 37V16.28H222.265C226.158 16.28 228.105 18.24 228.105 22.16V37H225.585V21.76C225.585 19.6 224.505 18.52 222.345 18.52H213.705V37H211.185ZM235.184 31.12V9.4H237.704V16.28H245.544V18.52H237.704V31.52C237.704 33.7067 238.797 34.8 240.984 34.8H245.944V35.96L244.584 37H241.064C237.144 37 235.184 35.04 235.184 31.12Z" fill="#18304C"/>
<path d="M248.977 36.36L258.297 9.4H262.857L272.137 36.36L271.737 37H269.537L267.097 29.64H254.017L251.577 37H249.417L248.977 36.36ZM254.897 27.24H266.257L261.097 11.84H260.057L254.897 27.24ZM277.422 37V9.4H280.102V37H277.422Z" fill="black"/>
<path d="M10.8552 43.5815L1.0114 26.4212C0.329533 25.2326 0.329533 23.7678 1.0114 22.5791L10.8552 5.41883L10.4313 5.17567L10.8552 5.41883C11.5369 4.2305 12.7955 3.5 14.1562 3.5H33.8438C35.2041 3.5 36.4628 4.23047 37.1448 5.41892L46.9886 22.5791C47.6705 23.7678 47.6705 25.2326 46.9886 26.4213L37.1448 43.5815C36.4632 44.7698 35.2046 45.5 33.8438 45.5H14.1562C12.7958 45.5 11.5368 44.7695 10.8552 43.5815Z" fill="white" stroke="black"/>
<path d="M8.00818 23.8385C8.50815 4.3385 28.5082 8.33852 28.5082 8.33852L26.0082 13.3385C26.0082 13.3385 14.8749 10.2049 13.0082 22.3385C11.0082 35.3385 27.5082 33.8386 27.5082 33.8386L30.0082 39.3386C30.0082 39.3386 7.50821 43.3384 8.00818 23.8385Z" stroke="black"/>
<path d="M38.0082 15.8385C38.0082 15.8385 35.3961 11.9359 32.0082 9.83847L27.0082 18.8385C27.0082 18.8385 32.5082 16.8385 33.0082 17.3385C33.5082 17.8385 34.0082 18.8385 34.0082 18.8385L38.0082 15.8385Z" stroke="black"/>
<path d="M40.0082 19.8385L35.0082 20.8385C35.6753 27.3063 34.434 29.8336 30.0082 32.8385L32.5082 37.8385C39.2612 32.4242 40.9062 28.4843 40.0082 19.8385Z" stroke="black"/>
</svg>
