<svg width="282" height="50" viewBox="0 0 282 50" fill="none" xmlns="http://www.w3.org/2000/svg">
<path d="M65.4597 31.04V15.36C65.4597 11.3867 67.4464 9.4 71.4197 9.4H82.8597L84.4197 10.6V11.84H71.2997C69.193 11.84 68.1397 12.88 68.1397 14.96V31.44C68.1397 33.52 69.193 34.56 71.2997 34.56H84.4197V35.8L82.8597 37H71.4197C67.4464 37 65.4597 35.0133 65.4597 31.04ZM90.1975 31.12V22.16C90.1975 18.24 92.1575 16.28 96.0775 16.28H101.678C105.571 16.28 107.518 18.24 107.518 22.16V31.12C107.518 35.04 105.571 37 101.678 37H96.0775C92.1575 37 90.1975 35.04 90.1975 31.12ZM92.7175 31.52C92.7175 33.7067 93.8108 34.8 95.9975 34.8H101.757C103.918 34.8 104.998 33.7067 104.998 31.52V21.76C104.998 19.6 103.918 18.52 101.757 18.52H95.9975C93.8108 18.52 92.7175 19.6 92.7175 21.76V31.52ZM114.599 37V16.28H125.679C129.572 16.28 131.519 18.24 131.519 22.16V37H128.999V21.76C128.999 19.6 127.919 18.52 125.759 18.52H117.119V37H114.599ZM137.918 35.96V34.8H147.198C149.331 34.8 150.398 33.7333 150.398 31.6C150.398 29.4667 149.545 28.2667 147.838 28L142.958 27.16C139.598 26.6 137.918 24.8267 137.918 21.84C137.918 18.1333 139.891 16.28 143.838 16.28H150.598L151.958 17.32V18.52H143.678C141.518 18.52 140.438 19.5733 140.438 21.68C140.438 23.5467 141.331 24.6267 143.118 24.92L148.038 25.76C151.291 26.2933 152.918 28.1867 152.918 31.44C152.918 35.1467 150.945 37 146.998 37H139.278L137.918 35.96ZM159.32 31.12V9.4H161.84V16.28H169.68V18.52H161.84V31.52C161.84 33.7067 162.933 34.8 165.12 34.8H170.08V35.96L168.72 37H165.2C161.28 37 159.32 35.04 159.32 31.12ZM175.433 12.32V9.04H178.313V12.32H175.433ZM175.593 37V16.28H178.113V37H175.593ZM185.174 31.12V22.16C185.174 18.24 187.134 16.28 191.054 16.28H196.254C200.147 16.28 202.094 18.24 202.094 22.16V27.64H187.694V31.52C187.694 33.7067 188.787 34.8 190.974 34.8H201.294V35.96L199.934 37H191.054C187.134 37 185.174 35.04 185.174 31.12ZM187.694 25.52H199.574V21.76C199.574 19.6 198.494 18.52 196.334 18.52H190.974C188.787 18.52 187.694 19.6 187.694 21.76V25.52ZM209.185 37V16.28H220.265C224.158 16.28 226.105 18.24 226.105 22.16V37H223.585V21.76C223.585 19.6 222.505 18.52 220.345 18.52H211.705V37H209.185ZM233.184 31.12V9.4H235.704V16.28H243.544V18.52H235.704V31.52C235.704 33.7067 236.797 34.8 238.984 34.8H243.944V35.96L242.584 37H239.064C235.144 37 233.184 35.04 233.184 31.12Z" fill="#18304C"/>
<path d="M246.977 36.36L256.297 9.4H260.857L270.137 36.36L269.737 37H267.537L265.097 29.64H252.017L249.577 37H247.417L246.977 36.36ZM252.897 27.24H264.257L259.097 11.84H258.057L252.897 27.24ZM275.422 37V9.4H278.102V37H275.422Z" fill="black"/>
<g clip-path="url(#clip0_724_1460)">
<path d="M11.04 5.37863C9.36429 6.98702 0 24.187 0 25.6969C0 26.5504 1.21571 29.045 4.86286 35.6756C10.6129 46.1137 10.6129 46.1466 11.6971 46.6061C12.2557 46.8687 15.8043 47 23.0986 47C32.5943 47 33.7771 46.9344 34.5986 46.4092C35.9457 45.5885 46 27.2725 46 25.6641C46 24.1214 36.6686 6.98702 34.9929 5.37863L33.8429 4.32825H23H12.1571L11.04 5.37863ZM34.1057 6.19924C35.0914 7.05267 44.6857 24.6794 44.6857 25.6641C44.6857 26.6489 35.0914 44.2756 34.1057 45.129C33.5143 45.6214 32.4629 45.687 23 45.687C13.5371 45.687 12.4857 45.6214 11.8943 45.0962C10.9086 44.2756 1.31429 26.6489 1.31429 25.6969C1.31429 24.745 10.9086 7.05267 11.8943 6.19924C12.4857 5.70687 13.5371 5.64122 23 5.64122C32.4629 5.64122 33.5143 5.70687 34.1057 6.19924Z" fill="#5CC89A"/>
<path d="M18.4573 10.5016C10.1982 12.6593 4.88072 20.3028 6.20066 28.1292C7.78459 37.2722 16.2699 43.27 25.4718 41.7705C28.5642 41.2585 28.4134 41.6608 27.1689 37.455L26.6032 35.5167L25.2078 35.8093C21.3611 36.6139 17.5144 35.4436 14.95 32.7738C13.2906 31.0184 12.8381 30.1041 12.2347 27.2881C11.4427 23.4846 13.7432 19.1325 17.5899 17.0845C19.4378 16.0971 20.0412 15.9873 22.8319 15.9873L26.0375 15.9508L26.6786 13.4273C27.0557 12.0376 27.282 10.8307 27.2066 10.7576C27.1311 10.6844 26.4146 10.465 25.6226 10.2821C23.5862 9.84326 20.72 9.91641 18.4573 10.5016ZM25.057 11.745C25.4341 11.9644 25.4718 12.3667 25.2455 13.2079L24.9438 14.3782L22.1154 14.4879C15.5157 14.7073 10.6885 19.5348 10.6885 25.8983C10.6885 28.1658 10.877 28.9338 11.8953 30.9452C14.0449 35.151 17.7407 37.3819 22.7565 37.4916L25.6604 37.5648L25.9621 38.8082C26.1506 39.4665 26.1883 40.1248 26.0752 40.2711C25.5472 40.7465 19.2869 40.4174 17.5899 39.7956C11.3673 37.5648 7.63374 32.2618 7.63374 25.6789C7.63374 22.936 7.78459 22.2777 8.80283 20.12C9.44394 18.7668 10.6885 16.9382 11.5181 16.0605C13.1775 14.305 16.6093 12.3667 18.9475 11.8181C20.8331 11.3793 24.4158 11.3427 25.057 11.745Z" fill="#5CC89A"/>
<path d="M27.3549 16.4177C25.9613 18.8458 24.8978 20.9029 25.0078 20.9703C25.0812 21.0715 26.5481 20.9029 28.2351 20.6331C30.8389 20.2284 31.389 20.2284 31.8657 20.5994C32.3425 21.004 32.7459 20.8692 34.7263 19.6888C35.9731 18.9469 37 18.205 37 18.0364C37 17.0247 31.389 12 30.2888 12C30.0321 12 28.7118 13.9897 27.3549 16.4177ZM32.8559 15.4397C33.9194 16.4177 34.7996 17.3957 34.7996 17.598C34.7996 18.205 33.0026 19.1493 32.2691 18.9132C31.9391 18.8121 30.7655 18.8795 29.6653 19.0818C28.6018 19.2842 27.6483 19.3516 27.5383 19.2842C27.3549 19.1156 30.4721 13.6862 30.7655 13.6862C30.8389 13.6862 31.7924 14.4618 32.8559 15.4397Z" fill="#5CC89A"/>
<path d="M35.3054 22.4041L32.8581 22.7711L33.0772 24.8632C33.406 28.24 32.4928 30.8093 30.009 33.2684L28 35.2871L29.0227 37.4527C30.4838 40.5725 30.6299 40.6092 32.8581 38.7373C36.5838 35.7276 38.5562 32.0572 38.9215 27.616C39.1772 24.8265 38.7754 21.9636 38.191 22.0003C37.9353 22.0371 36.6568 22.2206 35.3054 22.4041ZM37.497 26.8453C37.3874 29.2677 37.0952 30.3688 36.2185 32.3508C35.1592 34.5898 32.1641 38.1133 31.3239 38.1133C31.1413 38.1133 30.703 37.5628 30.3742 36.8654L29.7898 35.6175L31.1048 34.4429C32.8581 32.9014 34.2461 29.8917 34.5018 27.0288C34.794 23.8355 34.8305 23.7988 36.3281 23.7988H37.6796L37.497 26.8453Z" fill="#5CC89A"/>
</g>
<defs>
<clipPath id="clip0_724_1460">
<rect width="46" height="43" fill="white" transform="translate(0 4)"/>
</clipPath>
</defs>
</svg>
