<svg width="285" height="50" viewBox="0 0 285 50" fill="none" xmlns="http://www.w3.org/2000/svg">
<path d="M62.5458 30.68V15.72C62.5458 11.5067 64.6391 9.4 68.8258 9.4H79.9458L81.9858 11V13.08H68.8658C67.3458 13.08 66.5858 13.8267 66.5858 15.32V31.08C66.5858 32.5733 67.3458 33.32 68.8658 33.32H81.9858V35.4L79.9458 37H68.8258C64.6391 37 62.5458 34.8933 62.5458 30.68ZM87.5961 30.84V22.24C87.5961 18.16 89.6361 16.12 93.7161 16.12H99.3161C103.396 16.12 105.436 18.16 105.436 22.24V30.84C105.436 34.9467 103.396 37 99.3161 37H93.7161C89.6361 37 87.5961 34.9467 87.5961 30.84ZM91.4761 31.24C91.4761 32.8133 92.2628 33.6 93.8361 33.6H99.2361C100.783 33.6 101.556 32.8133 101.556 31.24V21.84C101.556 20.2933 100.783 19.52 99.2361 19.52H93.8361C92.2628 19.52 91.4761 20.2933 91.4761 21.84V31.24ZM112.154 37V16.12H123.474C127.554 16.12 129.594 18.16 129.594 22.24V37H125.714V21.84C125.714 20.2933 124.94 19.52 123.394 19.52H116.034V37H112.154ZM135.669 35.64V33.6H144.909C146.483 33.6 147.269 32.8 147.269 31.2C147.269 29.5467 146.629 28.6133 145.349 28.4L140.749 27.64C137.363 27.0533 135.669 25.1867 135.669 22.04C135.669 18.0933 137.723 16.12 141.829 16.12H148.349L150.189 17.48V19.52H141.909C140.309 19.52 139.509 20.32 139.509 21.92C139.509 23.4133 140.176 24.28 141.509 24.52L146.149 25.28C149.483 25.84 151.149 27.76 151.149 31.04C151.149 35.0133 149.083 37 144.949 37H137.509L135.669 35.64ZM157.187 30.84V9.4H161.067V16.12H168.467V19.52H161.067V31.24C161.067 32.8133 161.854 33.6 163.427 33.6H168.867V35.64L167.027 37H163.307C159.227 37 157.187 34.9467 157.187 30.84ZM174.081 12.36V8.12H178.241V12.36H174.081ZM174.241 37V16.12H178.121V37H174.241ZM184.838 30.84V22.24C184.838 18.16 186.878 16.12 190.958 16.12H196.158C200.238 16.12 202.278 18.16 202.278 22.24V28H188.718V31.24C188.718 32.8133 189.505 33.6 191.078 33.6H201.478V35.64L199.678 37H190.958C186.878 37 184.838 34.9467 184.838 30.84ZM188.718 24.96H198.398V21.84C198.398 20.2933 197.625 19.52 196.078 19.52H191.078C189.505 19.52 188.718 20.2933 188.718 21.84V24.96ZM209.005 37V16.12H220.325C224.405 16.12 226.445 18.16 226.445 22.24V37H222.565V21.84C222.565 20.2933 221.792 19.52 220.245 19.52H212.885V37H209.005ZM233.161 30.84V9.4H237.041V16.12H244.441V19.52H237.041V31.24C237.041 32.8133 237.827 33.6 239.401 33.6H244.841V35.64L243.001 37H239.281C235.201 37 233.161 34.9467 233.161 30.84Z" fill="#18304C"/>
<path d="M247.855 36.16L256.695 9.4H263.135L271.935 36.16L271.415 37H268.015L265.935 30.44H253.895L251.775 37H248.415L247.855 36.16ZM255.055 26.76H264.775L260.335 13.08H259.495L255.055 26.76ZM277 37V9.4H281.04V37H277Z" fill="black"/>
<g clip-path="url(#clip0_724_1460)">
<path d="M11.04 5.37863C9.36429 6.98702 0 24.187 0 25.6969C0 26.5504 1.21571 29.045 4.86286 35.6756C10.6129 46.1137 10.6129 46.1466 11.6971 46.6061C12.2557 46.8687 15.8043 47 23.0986 47C32.5943 47 33.7771 46.9344 34.5986 46.4092C35.9457 45.5885 46 27.2725 46 25.6641C46 24.1214 36.6686 6.98702 34.9929 5.37863L33.8429 4.32825H23H12.1571L11.04 5.37863ZM34.1057 6.19924C35.0914 7.05267 44.6857 24.6794 44.6857 25.6641C44.6857 26.6489 35.0914 44.2756 34.1057 45.129C33.5143 45.6214 32.4629 45.687 23 45.687C13.5371 45.687 12.4857 45.6214 11.8943 45.0962C10.9086 44.2756 1.31429 26.6489 1.31429 25.6969C1.31429 24.745 10.9086 7.05267 11.8943 6.19924C12.4857 5.70687 13.5371 5.64122 23 5.64122C32.4629 5.64122 33.5143 5.70687 34.1057 6.19924Z" fill="#32966C"/>
<path d="M18.4573 10.5016C10.1982 12.6593 4.88072 20.3028 6.20066 28.1292C7.78459 37.2722 16.2699 43.27 25.4718 41.7705C28.5642 41.2585 28.4134 41.6608 27.1689 37.455L26.6032 35.5167L25.2078 35.8093C21.3611 36.6139 17.5144 35.4436 14.95 32.7738C13.2906 31.0184 12.8381 30.1041 12.2347 27.2881C11.4427 23.4846 13.7432 19.1325 17.5899 17.0845C19.4378 16.0971 20.0412 15.9873 22.8319 15.9873L26.0375 15.9508L26.6786 13.4273C27.0557 12.0376 27.282 10.8307 27.2066 10.7576C27.1311 10.6844 26.4146 10.465 25.6226 10.2821C23.5862 9.84326 20.72 9.91641 18.4573 10.5016ZM25.057 11.745C25.4341 11.9644 25.4718 12.3667 25.2455 13.2079L24.9438 14.3782L22.1154 14.4879C15.5157 14.7073 10.6885 19.5348 10.6885 25.8983C10.6885 28.1658 10.877 28.9338 11.8953 30.9452C14.0449 35.151 17.7407 37.3819 22.7565 37.4916L25.6604 37.5648L25.9621 38.8082C26.1506 39.4665 26.1883 40.1248 26.0752 40.2711C25.5472 40.7465 19.2869 40.4174 17.5899 39.7956C11.3673 37.5648 7.63374 32.2618 7.63374 25.6789C7.63374 22.936 7.78459 22.2777 8.80283 20.12C9.44394 18.7668 10.6885 16.9382 11.5181 16.0605C13.1775 14.305 16.6093 12.3667 18.9475 11.8181C20.8331 11.3793 24.4158 11.3427 25.057 11.745Z" fill="#32966C"/>
<path d="M27.3549 16.4177C25.9613 18.8458 24.8978 20.9029 25.0078 20.9703C25.0812 21.0715 26.5481 20.9029 28.2351 20.6331C30.8389 20.2284 31.389 20.2284 31.8657 20.5994C32.3425 21.004 32.7459 20.8692 34.7263 19.6888C35.9731 18.9469 37 18.205 37 18.0364C37 17.0247 31.389 12 30.2888 12C30.0321 12 28.7118 13.9897 27.3549 16.4177ZM32.8559 15.4397C33.9194 16.4177 34.7996 17.3957 34.7996 17.598C34.7996 18.205 33.0026 19.1493 32.2691 18.9132C31.9391 18.8121 30.7655 18.8795 29.6653 19.0818C28.6018 19.2842 27.6483 19.3516 27.5383 19.2842C27.3549 19.1156 30.4721 13.6862 30.7655 13.6862C30.8389 13.6862 31.7924 14.4618 32.8559 15.4397Z" fill="#32966C"/>
<path d="M35.3054 22.4041L32.8581 22.7711L33.0772 24.8632C33.406 28.24 32.4928 30.8093 30.009 33.2684L28 35.2871L29.0227 37.4527C30.4838 40.5725 30.6299 40.6092 32.8581 38.7373C36.5838 35.7276 38.5562 32.0572 38.9215 27.616C39.1772 24.8265 38.7754 21.9636 38.191 22.0003C37.9353 22.0371 36.6568 22.2206 35.3054 22.4041ZM37.497 26.8453C37.3874 29.2677 37.0952 30.3688 36.2185 32.3508C35.1592 34.5898 32.1641 38.1133 31.3239 38.1133C31.1413 38.1133 30.703 37.5628 30.3742 36.8654L29.7898 35.6175L31.1048 34.4429C32.8581 32.9014 34.2461 29.8917 34.5018 27.0288C34.794 23.8355 34.8305 23.7988 36.3281 23.7988H37.6796L37.497 26.8453Z" fill="#32966C"/>
</g>
<defs>
<clipPath id="clip0_724_1460">
<rect width="46" height="43" fill="white" transform="translate(0 4)"/>
</clipPath>
</defs>
</svg>
